<?xml version="1.0" encoding="utf-8"?>
<!-- Generator: Adobe Illustrator 15.0.0, SVG Export Plug-In . SVG Version: 6.00 Build 0)  -->
<!DOCTYPE svg PUBLIC "-//W3C//DTD SVG 1.1//EN" "http://www.w3.org/Graphics/SVG/1.1/DTD/svg11.dtd">
<svg version="1.1" id="Layer_1" xmlns="http://www.w3.org/2000/svg" xmlns:xlink="http://www.w3.org/1999/xlink" x="0px" y="0px"
	 width="100px" height="16px" viewBox="0 0 100 16" enable-background="new 0 0 100 16" xml:space="preserve">
<g>
	<path fill="#4E4E50" d="M70.047,0.348h-1.461c-0.264,0-0.42,0.158-0.42,0.424v10.843L60.829,0.644
		c-0.111-0.166-0.352-0.295-0.552-0.295h-1.656c-0.297,0-0.422,0.126-0.422,0.424v14.466c0,0.265,0.158,0.422,0.422,0.422h1.419
		c0.265,0,0.422-0.157,0.422-0.422V3.845l7.764,11.518c0.118,0.195,0.311,0.297,0.554,0.297h1.268c0.266,0,0.422-0.156,0.422-0.421
		V0.772C70.469,0.506,70.312,0.348,70.047,0.348"/>
	<path fill="#4E4E50" d="M97.455,0.35H86.244c-0.174,0-0.315,0.14-0.315,0.313v1.403c0,0.174,0.142,0.313,0.315,0.313h4.346v12.959
		c0,0.178,0.145,0.321,0.322,0.321h1.698c0.178,0,0.322-0.145,0.322-0.321V2.38h4.522c0.173,0,0.313-0.14,0.313-0.313V0.664
		C97.77,0.49,97.629,0.35,97.455,0.35"/>
	<path fill="#4E4E50" d="M79.661,0.367h-2.01c-1.553,0-5.162,0.495-5.162,5.076v5.142c0,4.581,3.609,5.075,5.162,5.075h5.944
		c0.222,0,0.406-0.182,0.406-0.407v-1.117c0-0.225-0.185-0.406-0.406-0.406h-5.89c-2.648,0-2.955-1.795-2.955-3.146V9.053h9.663
		c0.225,0,0.406-0.181,0.406-0.405V5.443C84.821,0.862,81.213,0.367,79.661,0.367 M82.562,5.443v1.681h-7.81V5.443
		c0-1.35,0.307-3.144,2.955-3.144h1.899C82.254,2.299,82.562,4.093,82.562,5.443"/>
	<path fill="#4E4E50" d="M11.625,6.81l1.733,7.462c0.287,1.253,1.421,1.388,1.896,1.388h1.66L13.476,0.946
		c-0.078-0.377-0.244-0.458-0.521-0.472h-2.718C9.958,0.487,9.798,0.645,9.75,0.941C9.648,1.384,7.273,11.669,7.249,11.772
		c-0.028,0.116-0.063,0.263-0.197,0.263c-0.098,0-0.172-0.095-0.204-0.26c-0.021-0.12-2.056-10.99-2.056-10.99
		C4.711,0.437,4.561,0.368,4.346,0.368h-2.75c-0.086,0-0.207,0.019-0.285,0.114C1.232,0.577,1.211,0.727,1.247,0.916l2.497,12.876
		c0.222,1.241,0.987,1.868,2.276,1.868h2.095c1.008,0,1.642-0.586,1.886-1.741L11.625,6.81z"/>
	<path fill="#4E4E50" d="M23.729,0.34c-0.216,0-0.391,0.175-0.391,0.391v14.537c0,0.217,0.175,0.392,0.391,0.392h2.896
		c0.216,0,0.392-0.175,0.392-0.392V0.731c0-0.215-0.175-0.391-0.392-0.391H23.729z"/>
	<path fill="#4E4E50" d="M48.332,0.343c-4.595,0-5.485,2.973-5.485,6.293v2.708c0,1.482,0.23,6.316,4.867,6.316h7.009
		c0.227,0,0.409-0.184,0.409-0.41v-2.161c0-0.228-0.183-0.412-0.409-0.412h-5.654c-0.424,0-2.533-0.11-2.533-2.317V9.364h8.547
		c0.59,0,0.717-0.062,0.717-0.655V6.636c0-3.998-1.465-6.293-5.37-6.293H48.332z M52.111,6.6h-5.576V5.679
		c0-2.057,1.45-2.364,2.312-2.364h0.951c0.865,0,2.312,0.308,2.312,2.364V6.6L52.111,6.6z"/>
	<path fill="#4E4E50" d="M34.148,5.797C33.95,5.718,33.303,5.4,33.303,4.55c0-0.428,0.286-1.235,1.37-1.235h5.459
		c0.226,0,0.41-0.184,0.41-0.411V0.75c0-0.227-0.184-0.411-0.41-0.411c-1.289,0.001-5.22,0.003-6.039,0.003
		c-2.159,0-4.547,1.543-4.547,4.038c0,2.373,0.937,3.634,3.194,4.499c0,0,3.549,1.362,3.985,1.527
		c0.53,0.202,0.833,0.619,0.833,1.148c0,0.55-0.417,1.131-1.189,1.131h-6.213c-0.226,0-0.41,0.184-0.41,0.411v2.153
		c0,0.227,0.184,0.41,0.41,0.41h7.491c2.165,0,3.68-1.672,3.68-4.162c0-2.09-0.817-3.233-2.676-3.946
		C37.902,7.265,34.501,5.934,34.148,5.797"/>
	<path fill="#F47423" d="M21.005,0.834l-2.583,9.312L16.286,0.84c-0.063-0.275,0.115-0.5,0.399-0.5h3.944
		C20.913,0.339,21.081,0.561,21.005,0.834"/>
</g>
</svg>
